<mxfile host="app.diagrams.net" modified="2024-01-29T14:53:04.139Z" agent="Mozilla/5.0 (Macintosh; Intel Mac OS X 10_15_7) AppleWebKit/537.36 (KHTML, like Gecko) Chrome/120.0.0.0 Safari/537.36" etag="byOlSt2qJxuXi3gbFrHc" version="23.0.2" type="device">
  <diagram id="R2lEEEUBdFMjLlhIrx00" name="Page-1">
    <mxGraphModel dx="1242" dy="1833" grid="1" gridSize="10" guides="1" tooltips="1" connect="1" arrows="1" fold="1" page="1" pageScale="1" pageWidth="850" pageHeight="1100" math="0" shadow="0" extFonts="Permanent Marker^https://fonts.googleapis.com/css?family=Permanent+Marker">
      <root>
        <mxCell id="0" />
        <mxCell id="1" parent="0" />
        <mxCell id="CKnWTNf-XU3LMJgh_Tq6-2" value="DB" style="shape=cylinder3;whiteSpace=wrap;html=1;boundedLbl=1;backgroundOutline=1;size=15;" parent="1" vertex="1">
          <mxGeometry x="373" y="440" width="105" height="160" as="geometry" />
        </mxCell>
        <mxCell id="CKnWTNf-XU3LMJgh_Tq6-3" value="Kafka" style="rounded=1;whiteSpace=wrap;html=1;dashed=1;dashPattern=8 8;gradientColor=none;fillColor=none;verticalAlign=top;" parent="1" vertex="1">
          <mxGeometry x="310" y="85" width="200" height="300" as="geometry" />
        </mxCell>
        <mxCell id="CKnWTNf-XU3LMJgh_Tq6-7" value="1. Request" style="edgeStyle=orthogonalEdgeStyle;rounded=0;orthogonalLoop=1;jettySize=auto;html=1;" parent="1" source="CKnWTNf-XU3LMJgh_Tq6-4" edge="1">
          <mxGeometry relative="1" as="geometry">
            <Array as="points">
              <mxPoint x="140" y="95" />
              <mxPoint x="280" y="95" />
            </Array>
            <mxPoint x="280" y="50" as="targetPoint" />
          </mxGeometry>
        </mxCell>
        <mxCell id="CKnWTNf-XU3LMJgh_Tq6-11" value="3. Save Raw Page" style="edgeStyle=orthogonalEdgeStyle;rounded=0;orthogonalLoop=1;jettySize=auto;html=1;exitX=0;exitY=0.75;exitDx=0;exitDy=0;" parent="1" source="CKnWTNf-XU3LMJgh_Tq6-4" target="CKnWTNf-XU3LMJgh_Tq6-2" edge="1">
          <mxGeometry relative="1" as="geometry">
            <Array as="points">
              <mxPoint x="50" y="200" />
              <mxPoint x="50" y="420" />
              <mxPoint x="400" y="420" />
            </Array>
          </mxGeometry>
        </mxCell>
        <mxCell id="CKnWTNf-XU3LMJgh_Tq6-4" value="Crawler" style="whiteSpace=wrap;html=1;aspect=fixed;" parent="1" vertex="1">
          <mxGeometry x="100" y="140" width="80" height="80" as="geometry" />
        </mxCell>
        <mxCell id="CKnWTNf-XU3LMJgh_Tq6-5" value="Scraper" style="whiteSpace=wrap;html=1;aspect=fixed;" parent="1" vertex="1">
          <mxGeometry x="600" y="140" width="80" height="80" as="geometry" />
        </mxCell>
        <mxCell id="CKnWTNf-XU3LMJgh_Tq6-8" value="2. Web Page" style="edgeStyle=orthogonalEdgeStyle;rounded=0;orthogonalLoop=1;jettySize=auto;html=1;exitX=0.483;exitY=1;exitDx=0;exitDy=0;entryX=0.25;entryY=0;entryDx=0;entryDy=0;exitPerimeter=0;" parent="1" source="YKnjo_I1xCR_LK-x7yz_-7" target="CKnWTNf-XU3LMJgh_Tq6-4" edge="1">
          <mxGeometry x="0.0027" relative="1" as="geometry">
            <Array as="points">
              <mxPoint x="256" y="50" />
              <mxPoint x="256" y="80" />
              <mxPoint x="120" y="80" />
            </Array>
            <mxPoint as="offset" />
            <mxPoint x="250" y="50" as="sourcePoint" />
          </mxGeometry>
        </mxCell>
        <mxCell id="CKnWTNf-XU3LMJgh_Tq6-12" value="4. Get Raw Page" style="edgeStyle=orthogonalEdgeStyle;rounded=0;orthogonalLoop=1;jettySize=auto;html=1;entryX=0.25;entryY=1;entryDx=0;entryDy=0;" parent="1" source="CKnWTNf-XU3LMJgh_Tq6-2" target="CKnWTNf-XU3LMJgh_Tq6-40" edge="1">
          <mxGeometry relative="1" as="geometry">
            <mxPoint x="640" y="250" as="targetPoint" />
          </mxGeometry>
        </mxCell>
        <mxCell id="CKnWTNf-XU3LMJgh_Tq6-27" value="API" style="rounded=0;whiteSpace=wrap;html=1;" parent="1" vertex="1">
          <mxGeometry x="360" y="620" width="120" height="50" as="geometry" />
        </mxCell>
        <mxCell id="CKnWTNf-XU3LMJgh_Tq6-28" style="edgeStyle=orthogonalEdgeStyle;rounded=0;orthogonalLoop=1;jettySize=auto;html=1;entryX=0.5;entryY=1;entryDx=0;entryDy=0;entryPerimeter=0;" parent="1" source="CKnWTNf-XU3LMJgh_Tq6-27" target="CKnWTNf-XU3LMJgh_Tq6-2" edge="1">
          <mxGeometry relative="1" as="geometry" />
        </mxCell>
        <mxCell id="CKnWTNf-XU3LMJgh_Tq6-30" value="" style="edgeStyle=orthogonalEdgeStyle;rounded=0;orthogonalLoop=1;jettySize=auto;html=1;" parent="1" source="CKnWTNf-XU3LMJgh_Tq6-29" target="CKnWTNf-XU3LMJgh_Tq6-27" edge="1">
          <mxGeometry relative="1" as="geometry">
            <Array as="points">
              <mxPoint x="357" y="750" />
              <mxPoint x="420" y="750" />
            </Array>
          </mxGeometry>
        </mxCell>
        <mxCell id="CKnWTNf-XU3LMJgh_Tq6-29" value="Placer Sales" style="shape=umlActor;verticalLabelPosition=bottom;verticalAlign=top;html=1;outlineConnect=0;" parent="1" vertex="1">
          <mxGeometry x="320" y="780" width="27" height="50" as="geometry" />
        </mxCell>
        <mxCell id="CKnWTNf-XU3LMJgh_Tq6-34" value="" style="edgeStyle=orthogonalEdgeStyle;rounded=0;orthogonalLoop=1;jettySize=auto;html=1;" parent="1" source="CKnWTNf-XU3LMJgh_Tq6-31" target="CKnWTNf-XU3LMJgh_Tq6-27" edge="1">
          <mxGeometry relative="1" as="geometry" />
        </mxCell>
        <mxCell id="CKnWTNf-XU3LMJgh_Tq6-31" value="Placer Sales" style="shape=umlActor;verticalLabelPosition=bottom;verticalAlign=top;html=1;outlineConnect=0;" parent="1" vertex="1">
          <mxGeometry x="406.5" y="780" width="27" height="50" as="geometry" />
        </mxCell>
        <mxCell id="CKnWTNf-XU3LMJgh_Tq6-35" value="" style="edgeStyle=orthogonalEdgeStyle;rounded=0;orthogonalLoop=1;jettySize=auto;html=1;" parent="1" source="CKnWTNf-XU3LMJgh_Tq6-32" target="CKnWTNf-XU3LMJgh_Tq6-27" edge="1">
          <mxGeometry relative="1" as="geometry">
            <Array as="points">
              <mxPoint x="487" y="750" />
              <mxPoint x="420" y="750" />
            </Array>
          </mxGeometry>
        </mxCell>
        <mxCell id="CKnWTNf-XU3LMJgh_Tq6-32" value="Placer Sales" style="shape=umlActor;verticalLabelPosition=bottom;verticalAlign=top;html=1;outlineConnect=0;" parent="1" vertex="1">
          <mxGeometry x="500" y="780" width="27" height="50" as="geometry" />
        </mxCell>
        <mxCell id="CKnWTNf-XU3LMJgh_Tq6-36" value="API" style="rounded=0;whiteSpace=wrap;html=1;" parent="1" vertex="1">
          <mxGeometry x="370" y="630" width="120" height="50" as="geometry" />
        </mxCell>
        <mxCell id="CKnWTNf-XU3LMJgh_Tq6-37" value="API" style="rounded=0;whiteSpace=wrap;html=1;" parent="1" vertex="1">
          <mxGeometry x="380" y="640" width="120" height="50" as="geometry" />
        </mxCell>
        <mxCell id="CKnWTNf-XU3LMJgh_Tq6-38" value="LB" style="rounded=1;whiteSpace=wrap;html=1;" parent="1" vertex="1">
          <mxGeometry x="360" y="710" width="130" height="20" as="geometry" />
        </mxCell>
        <mxCell id="CKnWTNf-XU3LMJgh_Tq6-39" value="Scraper" style="whiteSpace=wrap;html=1;aspect=fixed;" parent="1" vertex="1">
          <mxGeometry x="610" y="150" width="80" height="80" as="geometry" />
        </mxCell>
        <mxCell id="CKnWTNf-XU3LMJgh_Tq6-40" value="Scraper" style="whiteSpace=wrap;html=1;aspect=fixed;" parent="1" vertex="1">
          <mxGeometry x="620" y="160" width="80" height="80" as="geometry" />
        </mxCell>
        <mxCell id="CKnWTNf-XU3LMJgh_Tq6-41" value="Crawler" style="whiteSpace=wrap;html=1;aspect=fixed;" parent="1" vertex="1">
          <mxGeometry x="110" y="150" width="80" height="80" as="geometry" />
        </mxCell>
        <mxCell id="CKnWTNf-XU3LMJgh_Tq6-42" value="Crawler" style="whiteSpace=wrap;html=1;aspect=fixed;" parent="1" vertex="1">
          <mxGeometry x="120" y="160" width="80" height="80" as="geometry" />
        </mxCell>
        <mxCell id="CKnWTNf-XU3LMJgh_Tq6-43" value="6. Save Scraped Info" style="edgeStyle=orthogonalEdgeStyle;rounded=0;orthogonalLoop=1;jettySize=auto;html=1;exitX=0;exitY=1;exitDx=0;exitDy=0;entryX=0.855;entryY=0;entryDx=0;entryDy=4.35;entryPerimeter=0;" parent="1" source="CKnWTNf-XU3LMJgh_Tq6-5" target="CKnWTNf-XU3LMJgh_Tq6-2" edge="1">
          <mxGeometry relative="1" as="geometry">
            <Array as="points">
              <mxPoint x="600" y="400" />
              <mxPoint x="463" y="400" />
            </Array>
          </mxGeometry>
        </mxCell>
        <mxCell id="YKnjo_I1xCR_LK-x7yz_-2" value="Crawling" style="rounded=1;whiteSpace=wrap;html=1;" vertex="1" parent="1">
          <mxGeometry x="330" y="110" width="70" height="250" as="geometry" />
        </mxCell>
        <mxCell id="YKnjo_I1xCR_LK-x7yz_-3" value="Scraping" style="rounded=1;whiteSpace=wrap;html=1;" vertex="1" parent="1">
          <mxGeometry x="420" y="110" width="70" height="250" as="geometry" />
        </mxCell>
        <mxCell id="YKnjo_I1xCR_LK-x7yz_-4" value="Events" style="endArrow=classic;startArrow=classic;html=1;rounded=0;entryX=-0.005;entryY=0.417;entryDx=0;entryDy=0;entryPerimeter=0;" edge="1" parent="1" target="CKnWTNf-XU3LMJgh_Tq6-3">
          <mxGeometry width="50" height="50" relative="1" as="geometry">
            <mxPoint x="200" y="210" as="sourcePoint" />
            <mxPoint x="250" y="160" as="targetPoint" />
          </mxGeometry>
        </mxCell>
        <mxCell id="YKnjo_I1xCR_LK-x7yz_-5" value="Events" style="endArrow=classic;startArrow=classic;html=1;rounded=0;" edge="1" parent="1">
          <mxGeometry width="50" height="50" relative="1" as="geometry">
            <mxPoint x="510" y="210" as="sourcePoint" />
            <mxPoint x="600" y="210" as="targetPoint" />
          </mxGeometry>
        </mxCell>
        <mxCell id="YKnjo_I1xCR_LK-x7yz_-7" value="Internet" style="ellipse;shape=cloud;whiteSpace=wrap;html=1;" vertex="1" parent="1">
          <mxGeometry x="200" y="-30" width="120" height="80" as="geometry" />
        </mxCell>
        <mxCell id="YKnjo_I1xCR_LK-x7yz_-8" value="LLM" style="shape=cube;whiteSpace=wrap;html=1;boundedLbl=1;backgroundOutline=1;darkOpacity=0.05;darkOpacity2=0.1;" vertex="1" parent="1">
          <mxGeometry x="710" y="-10" width="120" height="80" as="geometry" />
        </mxCell>
        <mxCell id="YKnjo_I1xCR_LK-x7yz_-9" value="5. Use LLM to Scrape" style="edgeStyle=orthogonalEdgeStyle;rounded=0;orthogonalLoop=1;jettySize=auto;html=1;entryX=0;entryY=0;entryDx=70;entryDy=80;entryPerimeter=0;startArrow=classic;startFill=1;" edge="1" parent="1" source="CKnWTNf-XU3LMJgh_Tq6-40" target="YKnjo_I1xCR_LK-x7yz_-8">
          <mxGeometry relative="1" as="geometry" />
        </mxCell>
      </root>
    </mxGraphModel>
  </diagram>
</mxfile>
